STARTFONT 2.1
COMMENT converted Oberon font (using FontToBDF by R.Crelier 10.1.91)
FONT Times12b.Scn.Fnt
SIZE 12 75 75
FONTBOUNDINGBOX  13 14 0 -3
STARTPROPERTIES 3
FONT_ASCENT 11
FONT_DESCENT 3
DEFAULT_CHAR 0
ENDPROPERTIES
CHARS 121
STARTCHAR c0
ENCODING -1 0
SWIDTH 0 0
DWIDTH 0 0
BBX 0 0 0 0
BITMAP
ENDCHAR
STARTCHAR c9
ENCODING -1 9
SWIDTH 387 0
DWIDTH 12 0
BBX 0 0 0 0
BITMAP
ENDCHAR
STARTCHAR c32
ENCODING -1 32
SWIDTH 96 0
DWIDTH 3 0
BBX 0 0 0 0
BITMAP
ENDCHAR
STARTCHAR c33
ENCODING -1 33
SWIDTH 129 0
DWIDTH 4 0
BBX 2 9 2 0
BITMAP
C0
C0
C0
80
80
80
00
C0
C0
ENDCHAR
STARTCHAR c34
ENCODING -1 34
SWIDTH 193 0
DWIDTH 6 0
BBX 4 4 1 6
BITMAP
50
50
50
A0
ENDCHAR
STARTCHAR c35
ENCODING -1 35
SWIDTH 258 0
DWIDTH 8 0
BBX 8 10 0 0
BITMAP
12
12
7F
7F
24
24
FE
FE
48
48
ENDCHAR
STARTCHAR c36
ENCODING -1 36
SWIDTH 290 0
DWIDTH 9 0
BBX 7 12 1 -1
BITMAP
10
7E
D6
D2
D0
FC
7E
16
96
D6
FC
10
ENDCHAR
STARTCHAR c37
ENCODING -1 37
SWIDTH 354 0
DWIDTH 11 0
BBX 9 9 1 0
BITMAP
7100
DA00
DA00
7400
0800
1700
2D80
2D80
4700
ENDCHAR
STARTCHAR c38
ENCODING -1 38
SWIDTH 322 0
DWIDTH 10 0
BBX 9 9 1 0
BITMAP
3800
6400
7800
3380
7900
DD00
CE00
CE00
7700
ENDCHAR
STARTCHAR c39
ENCODING -1 39
SWIDTH 129 0
DWIDTH 4 0
BBX 2 4 1 6
BITMAP
40
40
40
80
ENDCHAR
STARTCHAR c40
ENCODING -1 40
SWIDTH 161 0
DWIDTH 5 0
BBX 4 13 1 -3
BITMAP
10
20
40
40
80
80
80
80
80
40
40
20
10
ENDCHAR
STARTCHAR c41
ENCODING -1 41
SWIDTH 161 0
DWIDTH 5 0
BBX 4 13 0 -3
BITMAP
80
40
20
20
10
10
10
10
10
20
20
40
80
ENDCHAR
STARTCHAR c42
ENCODING -1 42
SWIDTH 258 0
DWIDTH 8 0
BBX 7 9 0 -1
BITMAP
10
10
92
54
38
54
92
10
10
ENDCHAR
STARTCHAR c43
ENCODING -1 43
SWIDTH 258 0
DWIDTH 8 0
BBX 7 9 0 -1
BITMAP
10
10
10
10
FE
10
10
10
10
ENDCHAR
STARTCHAR c44
ENCODING -1 44
SWIDTH 129 0
DWIDTH 4 0
BBX 2 5 1 -3
BITMAP
C0
C0
40
40
80
ENDCHAR
STARTCHAR c45
ENCODING -1 45
SWIDTH 96 0
DWIDTH 3 0
BBX 3 1 0 3
BITMAP
E0
ENDCHAR
STARTCHAR c46
ENCODING -1 46
SWIDTH 129 0
DWIDTH 4 0
BBX 2 2 1 0
BITMAP
C0
C0
ENDCHAR
STARTCHAR c47
ENCODING -1 47
SWIDTH 225 0
DWIDTH 7 0
BBX 5 11 1 -1
BITMAP
08
08
10
10
20
20
20
40
40
80
80
ENDCHAR
STARTCHAR c48
ENCODING -1 48
SWIDTH 225 0
DWIDTH 7 0
BBX 6 9 1 0
BITMAP
78
CC
CC
CC
CC
CC
CC
CC
78
ENDCHAR
STARTCHAR c49
ENCODING -1 49
SWIDTH 225 0
DWIDTH 7 0
BBX 5 9 1 0
BITMAP
30
F0
30
30
30
30
30
30
78
ENDCHAR
STARTCHAR c50
ENCODING -1 50
SWIDTH 225 0
DWIDTH 7 0
BBX 6 9 1 0
BITMAP
70
98
18
18
30
20
44
FC
FC
ENDCHAR
STARTCHAR c51
ENCODING -1 51
SWIDTH 225 0
DWIDTH 7 0
BBX 5 9 1 0
BITMAP
70
98
18
18
70
18
18
98
E0
ENDCHAR
STARTCHAR c52
ENCODING -1 52
SWIDTH 225 0
DWIDTH 7 0
BBX 6 9 1 0
BITMAP
18
38
38
58
58
98
FC
18
18
ENDCHAR
STARTCHAR c53
ENCODING -1 53
SWIDTH 225 0
DWIDTH 7 0
BBX 5 9 1 0
BITMAP
78
78
40
F0
F8
18
18
90
E0
ENDCHAR
STARTCHAR c54
ENCODING -1 54
SWIDTH 225 0
DWIDTH 7 0
BBX 6 9 1 0
BITMAP
1C
60
60
C0
F8
CC
CC
CC
78
ENDCHAR
STARTCHAR c55
ENCODING -1 55
SWIDTH 225 0
DWIDTH 7 0
BBX 6 9 1 0
BITMAP
FC
FC
08
18
10
30
20
60
60
ENDCHAR
STARTCHAR c56
ENCODING -1 56
SWIDTH 225 0
DWIDTH 7 0
BBX 6 9 1 0
BITMAP
78
CC
CC
E8
30
5C
CC
CC
78
ENDCHAR
STARTCHAR c57
ENCODING -1 57
SWIDTH 225 0
DWIDTH 7 0
BBX 6 9 1 0
BITMAP
78
CC
CC
CC
7C
0C
18
18
E0
ENDCHAR
STARTCHAR c58
ENCODING -1 58
SWIDTH 129 0
DWIDTH 4 0
BBX 2 7 2 0
BITMAP
C0
C0
00
00
00
C0
C0
ENDCHAR
STARTCHAR c59
ENCODING -1 59
SWIDTH 129 0
DWIDTH 4 0
BBX 2 10 2 -3
BITMAP
C0
C0
00
00
00
C0
C0
40
40
80
ENDCHAR
STARTCHAR c60
ENCODING -1 60
SWIDTH 258 0
DWIDTH 8 0
BBX 8 7 0 0
BITMAP
03
0C
30
C0
30
0C
03
ENDCHAR
STARTCHAR c61
ENCODING -1 61
SWIDTH 258 0
DWIDTH 8 0
BBX 6 4 1 2
BITMAP
FC
00
00
FC
ENDCHAR
STARTCHAR c62
ENCODING -1 62
SWIDTH 258 0
DWIDTH 8 0
BBX 8 7 0 0
BITMAP
C0
30
0C
03
0C
30
C0
ENDCHAR
STARTCHAR c63
ENCODING -1 63
SWIDTH 193 0
DWIDTH 6 0
BBX 5 9 1 0
BITMAP
70
98
18
30
20
20
00
30
30
ENDCHAR
STARTCHAR c64
ENCODING -1 64
SWIDTH 419 0
DWIDTH 13 0
BBX 11 12 1 -2
BITMAP
0F00
30C0
4040
4F20
9B20
9B20
9B20
9F20
9BC0
4000
6000
1F00
ENDCHAR
STARTCHAR c65
ENCODING -1 65
SWIDTH 290 0
DWIDTH 9 0
BBX 9 9 0 0
BITMAP
1C00
1C00
1C00
2600
2600
3E00
4300
4300
E780
ENDCHAR
STARTCHAR c66
ENCODING -1 66
SWIDTH 290 0
DWIDTH 9 0
BBX 7 9 1 0
BITMAP
FC
66
66
66
7C
66
66
66
FC
ENDCHAR
STARTCHAR c67
ENCODING -1 67
SWIDTH 322 0
DWIDTH 10 0
BBX 8 9 1 0
BITMAP
3F
63
C1
C0
C0
C0
C1
62
3C
ENDCHAR
STARTCHAR c68
ENCODING -1 68
SWIDTH 354 0
DWIDTH 11 0
BBX 9 9 1 0
BITMAP
FE00
6300
6180
6180
6180
6180
6180
6300
FE00
ENDCHAR
STARTCHAR c69
ENCODING -1 69
SWIDTH 290 0
DWIDTH 9 0
BBX 7 9 1 0
BITMAP
FE
66
62
64
7C
64
62
66
FE
ENDCHAR
STARTCHAR c70
ENCODING -1 70
SWIDTH 258 0
DWIDTH 8 0
BBX 7 9 1 0
BITMAP
FE
66
62
64
7C
64
60
60
F0
ENDCHAR
STARTCHAR c71
ENCODING -1 71
SWIDTH 354 0
DWIDTH 11 0
BBX 9 9 1 0
BITMAP
3F00
6300
C100
C000
C780
C300
C300
6300
3C00
ENDCHAR
STARTCHAR c72
ENCODING -1 72
SWIDTH 354 0
DWIDTH 11 0
BBX 9 9 1 0
BITMAP
F780
6300
6300
6300
7F00
6300
6300
6300
F780
ENDCHAR
STARTCHAR c73
ENCODING -1 73
SWIDTH 193 0
DWIDTH 6 0
BBX 4 9 1 0
BITMAP
F0
60
60
60
60
60
60
60
F0
ENDCHAR
STARTCHAR c74
ENCODING -1 74
SWIDTH 193 0
DWIDTH 6 0
BBX 6 9 0 0
BITMAP
3C
18
18
18
18
18
18
D8
F0
ENDCHAR
STARTCHAR c75
ENCODING -1 75
SWIDTH 290 0
DWIDTH 9 0
BBX 8 9 1 0
BITMAP
F7
62
64
68
78
6C
6C
66
F7
ENDCHAR
STARTCHAR c76
ENCODING -1 76
SWIDTH 258 0
DWIDTH 8 0
BBX 7 9 1 0
BITMAP
F0
60
60
60
60
62
62
66
FE
ENDCHAR
STARTCHAR c77
ENCODING -1 77
SWIDTH 419 0
DWIDTH 13 0
BBX 11 9 1 0
BITMAP
F1E0
71C0
71C0
5AC0
5AC0
5AC0
4CC0
4CC0
EDE0
ENDCHAR
STARTCHAR c78
ENCODING -1 78
SWIDTH 354 0
DWIDTH 11 0
BBX 9 9 1 0
BITMAP
E380
7100
7100
5900
5D00
4D00
4700
4700
E300
ENDCHAR
STARTCHAR c79
ENCODING -1 79
SWIDTH 354 0
DWIDTH 11 0
BBX 9 9 1 0
BITMAP
3E00
6300
C180
C180
C180
C180
C180
6300
3E00
ENDCHAR
STARTCHAR c80
ENCODING -1 80
SWIDTH 290 0
DWIDTH 9 0
BBX 7 9 1 0
BITMAP
FC
66
66
66
7C
60
60
60
F0
ENDCHAR
STARTCHAR c81
ENCODING -1 81
SWIDTH 354 0
DWIDTH 11 0
BBX 10 11 1 -2
BITMAP
3E00
6300
C180
C180
C180
C180
C180
6300
3E00
0380
01C0
ENDCHAR
STARTCHAR c82
ENCODING -1 82
SWIDTH 290 0
DWIDTH 9 0
BBX 8 9 1 0
BITMAP
FC
66
66
64
78
6C
66
66
F3
ENDCHAR
STARTCHAR c83
ENCODING -1 83
SWIDTH 290 0
DWIDTH 9 0
BBX 7 9 1 0
BITMAP
7E
C6
C2
F0
7C
1E
86
C6
FC
ENDCHAR
STARTCHAR c84
ENCODING -1 84
SWIDTH 258 0
DWIDTH 8 0
BBX 8 9 0 0
BITMAP
FF
DB
99
18
18
18
18
18
3C
ENDCHAR
STARTCHAR c85
ENCODING -1 85
SWIDTH 322 0
DWIDTH 10 0
BBX 9 9 1 0
BITMAP
F380
6100
6100
6100
6100
6100
6100
7200
3C00
ENDCHAR
STARTCHAR c86
ENCODING -1 86
SWIDTH 290 0
DWIDTH 9 0
BBX 9 9 0 0
BITMAP
F380
6100
6100
3200
3200
3400
1C00
1800
1800
ENDCHAR
STARTCHAR c87
ENCODING -1 87
SWIDTH 419 0
DWIDTH 13 0
BBX 13 9 0 0
BITMAP
F7B8
6310
6310
35A0
35A0
35A0
18C0
18C0
18C0
ENDCHAR
STARTCHAR c88
ENCODING -1 88
SWIDTH 290 0
DWIDTH 9 0
BBX 9 9 0 0
BITMAP
FB80
6100
3200
3C00
0800
1E00
2600
4300
E780
ENDCHAR
STARTCHAR c89
ENCODING -1 89
SWIDTH 258 0
DWIDTH 8 0
BBX 8 9 0 0
BITMAP
F7
62
62
34
34
18
18
18
3C
ENDCHAR
STARTCHAR c90
ENCODING -1 90
SWIDTH 290 0
DWIDTH 9 0
BBX 7 9 1 0
BITMAP
FE
C6
8C
1C
38
70
62
C6
FE
ENDCHAR
STARTCHAR c91
ENCODING -1 91
SWIDTH 161 0
DWIDTH 5 0
BBX 3 13 2 -3
BITMAP
E0
80
80
80
80
80
80
80
80
80
80
80
E0
ENDCHAR
STARTCHAR c92
ENCODING -1 92
SWIDTH 225 0
DWIDTH 7 0
BBX 5 11 1 -1
BITMAP
80
80
40
40
20
20
20
10
10
08
08
ENDCHAR
STARTCHAR c93
ENCODING -1 93
SWIDTH 161 0
DWIDTH 5 0
BBX 3 13 0 -3
BITMAP
E0
20
20
20
20
20
20
20
20
20
20
20
E0
ENDCHAR
STARTCHAR c94
ENCODING -1 94
SWIDTH 225 0
DWIDTH 7 0
BBX 7 8 0 0
BITMAP
10
38
54
92
10
10
10
10
ENDCHAR
STARTCHAR c95
ENCODING -1 95
SWIDTH 258 0
DWIDTH 8 0
BBX 6 1 1 -1
BITMAP
FC
ENDCHAR
STARTCHAR c96
ENCODING -1 96
SWIDTH 225 0
DWIDTH 7 0
BBX 3 3 2 8
BITMAP
C0
40
20
ENDCHAR
STARTCHAR c97
ENCODING -1 97
SWIDTH 225 0
DWIDTH 7 0
BBX 6 7 1 0
BITMAP
78
D8
18
78
D8
F8
DC
ENDCHAR
STARTCHAR c98
ENCODING -1 98
SWIDTH 258 0
DWIDTH 8 0
BBX 7 10 0 0
BITMAP
E0
60
60
6E
76
66
66
66
64
78
ENDCHAR
STARTCHAR c99
ENCODING -1 99
SWIDTH 193 0
DWIDTH 6 0
BBX 5 7 1 0
BITMAP
78
D8
C0
C0
C0
C8
70
ENDCHAR
STARTCHAR c100
ENCODING -1 100
SWIDTH 258 0
DWIDTH 8 0
BBX 7 10 1 0
BITMAP
1C
0C
0C
3C
4C
CC
CC
CC
DC
EE
ENDCHAR
STARTCHAR c101
ENCODING -1 101
SWIDTH 225 0
DWIDTH 7 0
BBX 5 7 1 0
BITMAP
70
D8
D8
F8
C0
C8
70
ENDCHAR
STARTCHAR c102
ENCODING -1 102
SWIDTH 129 0
DWIDTH 4 0
BBX 4 10 0 0
BITMAP
30
60
60
F0
60
60
60
60
60
F0
ENDCHAR
STARTCHAR c103
ENCODING -1 103
SWIDTH 225 0
DWIDTH 7 0
BBX 6 10 1 -3
BITMAP
7C
D8
D8
F0
40
F8
FC
0C
8C
F0
ENDCHAR
STARTCHAR c104
ENCODING -1 104
SWIDTH 258 0
DWIDTH 8 0
BBX 8 10 0 0
BITMAP
E0
60
60
6E
76
66
66
66
66
67
ENDCHAR
STARTCHAR c105
ENCODING -1 105
SWIDTH 129 0
DWIDTH 4 0
BBX 4 11 0 0
BITMAP
60
60
00
00
E0
60
60
60
60
60
70
ENDCHAR
STARTCHAR c106
ENCODING -1 106
SWIDTH 129 0
DWIDTH 4 0
BBX 3 14 0 -3
BITMAP
60
60
00
00
E0
60
60
60
60
60
60
60
60
C0
ENDCHAR
STARTCHAR c107
ENCODING -1 107
SWIDTH 225 0
DWIDTH 7 0
BBX 7 10 0 0
BITMAP
E0
60
60
6E
64
68
78
6C
6C
EE
ENDCHAR
STARTCHAR c108
ENCODING -1 108
SWIDTH 129 0
DWIDTH 4 0
BBX 4 10 0 0
BITMAP
E0
60
60
60
60
60
60
60
60
70
ENDCHAR
STARTCHAR c109
ENCODING -1 109
SWIDTH 387 0
DWIDTH 12 0
BBX 12 7 0 0
BITMAP
EEE0
7760
6660
6660
6660
6660
6670
ENDCHAR
STARTCHAR c110
ENCODING -1 110
SWIDTH 258 0
DWIDTH 8 0
BBX 8 7 0 0
BITMAP
EE
76
66
66
66
66
67
ENDCHAR
STARTCHAR c111
ENCODING -1 111
SWIDTH 258 0
DWIDTH 8 0
BBX 6 7 1 0
BITMAP
78
CC
CC
CC
CC
CC
78
ENDCHAR
STARTCHAR c112
ENCODING -1 112
SWIDTH 258 0
DWIDTH 8 0
BBX 7 10 0 -3
BITMAP
EE
76
66
66
66
64
78
60
60
F0
ENDCHAR
STARTCHAR c113
ENCODING -1 113
SWIDTH 258 0
DWIDTH 8 0
BBX 7 10 1 -3
BITMAP
3C
4C
CC
CC
CC
DC
EC
0C
0C
1E
ENDCHAR
STARTCHAR c114
ENCODING -1 114
SWIDTH 161 0
DWIDTH 5 0
BBX 5 7 0 0
BITMAP
E8
78
60
60
60
60
F0
ENDCHAR
STARTCHAR c115
ENCODING -1 115
SWIDTH 161 0
DWIDTH 5 0
BBX 5 7 0 0
BITMAP
78
C8
E0
70
38
98
F0
ENDCHAR
STARTCHAR c116
ENCODING -1 116
SWIDTH 161 0
DWIDTH 5 0
BBX 5 9 0 0
BITMAP
20
60
F8
60
60
60
60
68
70
ENDCHAR
STARTCHAR c117
ENCODING -1 117
SWIDTH 258 0
DWIDTH 8 0
BBX 8 7 0 0
BITMAP
E6
66
66
66
66
6E
77
ENDCHAR
STARTCHAR c118
ENCODING -1 118
SWIDTH 193 0
DWIDTH 6 0
BBX 6 7 0 0
BITMAP
EC
64
64
68
38
30
30
ENDCHAR
STARTCHAR c119
ENCODING -1 119
SWIDTH 322 0
DWIDTH 10 0
BBX 10 7 0 0
BITMAP
E6C0
6640
6640
6A80
3B80
3300
3300
ENDCHAR
STARTCHAR c120
ENCODING -1 120
SWIDTH 193 0
DWIDTH 6 0
BBX 6 7 0 0
BITMAP
EC
68
70
30
38
58
DC
ENDCHAR
STARTCHAR c121
ENCODING -1 121
SWIDTH 193 0
DWIDTH 6 0
BBX 6 10 0 -3
BITMAP
EC
64
64
68
38
30
30
20
E0
C0
ENDCHAR
STARTCHAR c122
ENCODING -1 122
SWIDTH 193 0
DWIDTH 6 0
BBX 6 7 0 0
BITMAP
FC
98
18
30
60
64
FC
ENDCHAR
STARTCHAR c123
ENCODING -1 123
SWIDTH 161 0
DWIDTH 5 0
BBX 5 13 0 -3
BITMAP
18
20
20
20
20
20
C0
20
20
20
20
20
18
ENDCHAR
STARTCHAR c124
ENCODING -1 124
SWIDTH 161 0
DWIDTH 5 0
BBX 1 13 2 -3
BITMAP
80
80
80
80
80
80
80
80
80
80
80
80
80
ENDCHAR
STARTCHAR c125
ENCODING -1 125
SWIDTH 161 0
DWIDTH 5 0
BBX 5 13 0 -3
BITMAP
C0
20
20
20
20
20
18
20
20
20
20
20
C0
ENDCHAR
STARTCHAR c126
ENCODING -1 126
SWIDTH 258 0
DWIDTH 8 0
BBX 8 3 0 3
BITMAP
71
99
8E
ENDCHAR
STARTCHAR c128
ENCODING -1 128
SWIDTH 290 0
DWIDTH 9 0
BBX 9 11 0 0
BITMAP
3600
0000
1C00
1C00
1C00
2600
2600
3E00
4300
4300
E780
ENDCHAR
STARTCHAR c129
ENCODING -1 129
SWIDTH 354 0
DWIDTH 11 0
BBX 9 11 1 0
BITMAP
3600
0000
3E00
6300
C180
C180
C180
C180
C180
6300
3E00
ENDCHAR
STARTCHAR c130
ENCODING -1 130
SWIDTH 322 0
DWIDTH 10 0
BBX 9 11 1 0
BITMAP
3300
0000
F380
6100
6100
6100
6100
6100
6100
7200
3C00
ENDCHAR
STARTCHAR c131
ENCODING -1 131
SWIDTH 225 0
DWIDTH 7 0
BBX 6 10 1 0
BITMAP
48
48
00
78
D8
18
78
D8
F8
DC
ENDCHAR
STARTCHAR c132
ENCODING -1 132
SWIDTH 258 0
DWIDTH 8 0
BBX 6 10 1 0
BITMAP
48
48
00
78
CC
CC
CC
CC
CC
78
ENDCHAR
STARTCHAR c133
ENCODING -1 133
SWIDTH 258 0
DWIDTH 8 0
BBX 8 10 0 0
BITMAP
24
24
00
E6
66
66
66
66
6E
77
ENDCHAR
STARTCHAR c134
ENCODING -1 134
SWIDTH 225 0
DWIDTH 7 0
BBX 6 11 1 0
BITMAP
20
50
88
00
70
D8
18
78
D8
F8
DC
ENDCHAR
STARTCHAR c135
ENCODING -1 135
SWIDTH 225 0
DWIDTH 7 0
BBX 5 11 1 0
BITMAP
20
50
88
00
70
D8
D8
F8
C0
C8
70
ENDCHAR
STARTCHAR c136
ENCODING -1 136
SWIDTH 129 0
DWIDTH 4 0
BBX 4 11 0 0
BITMAP
60
90
00
00
E0
60
60
60
60
60
70
ENDCHAR
STARTCHAR c137
ENCODING -1 137
SWIDTH 258 0
DWIDTH 8 0
BBX 6 11 1 0
BITMAP
30
48
84
00
78
CC
CC
CC
CC
CC
78
ENDCHAR
STARTCHAR c138
ENCODING -1 138
SWIDTH 258 0
DWIDTH 8 0
BBX 8 11 0 0
BITMAP
18
24
42
00
E6
66
66
66
66
6E
77
ENDCHAR
STARTCHAR c139
ENCODING -1 139
SWIDTH 225 0
DWIDTH 7 0
BBX 6 11 1 0
BITMAP
60
20
10
00
78
D8
18
78
D8
F8
DC
ENDCHAR
STARTCHAR c140
ENCODING -1 140
SWIDTH 225 0
DWIDTH 7 0
BBX 5 11 1 0
BITMAP
60
20
10
00
70
D8
D8
F8
C0
C8
70
ENDCHAR
STARTCHAR c141
ENCODING -1 141
SWIDTH 129 0
DWIDTH 4 0
BBX 4 11 0 0
BITMAP
C0
40
20
00
E0
60
60
60
60
60
F0
ENDCHAR
STARTCHAR c142
ENCODING -1 142
SWIDTH 258 0
DWIDTH 8 0
BBX 6 11 1 0
BITMAP
60
20
10
00
78
CC
CC
CC
CC
CC
78
ENDCHAR
STARTCHAR c143
ENCODING -1 143
SWIDTH 258 0
DWIDTH 8 0
BBX 8 11 0 0
BITMAP
30
10
08
00
E6
66
66
66
66
6E
77
ENDCHAR
STARTCHAR c144
ENCODING -1 144
SWIDTH 225 0
DWIDTH 7 0
BBX 5 11 1 0
BITMAP
18
10
20
00
70
D8
D8
F8
C0
C8
70
ENDCHAR
STARTCHAR c145
ENCODING -1 145
SWIDTH 225 0
DWIDTH 7 0
BBX 5 10 1 0
BITMAP
48
48
00
70
D8
D8
F8
C0
C8
70
ENDCHAR
STARTCHAR c146
ENCODING -1 146
SWIDTH 129 0
DWIDTH 4 0
BBX 4 10 0 0
BITMAP
90
90
00
E0
60
60
60
60
60
70
ENDCHAR
STARTCHAR c147
ENCODING -1 147
SWIDTH 193 0
DWIDTH 6 0
BBX 5 10 1 -3
BITMAP
78
D8
C0
C0
C0
C8
70
00
60
20
ENDCHAR
STARTCHAR c148
ENCODING -1 148
SWIDTH 225 0
DWIDTH 7 0
BBX 6 11 1 0
BITMAP
18
10
20
00
70
D8
18
78
D8
F8
DC
ENDCHAR
STARTCHAR c149
ENCODING -1 149
SWIDTH 258 0
DWIDTH 8 0
BBX 8 10 0 0
BITMAP
3A
5C
00
EE
76
66
66
66
66
67
ENDCHAR
STARTCHAR c155
ENCODING -1 155
SWIDTH 322 0
DWIDTH 10 0
BBX 10 1 0 3
BITMAP
FFC0
ENDCHAR
STARTCHAR c159
ENCODING -1 159
SWIDTH 225 0
DWIDTH 7 0
BBX 0 0 0 0
BITMAP
ENDCHAR
ENDFONT
